<svg width="16" height="16" viewBox="0 0 16 16" fill="none" xmlns="http://www.w3.org/2000/svg">
<circle cx="8" cy="8" r="8" fill="#FF6E40"/>
<path fill-rule="evenodd" clip-rule="evenodd" d="M9.51661 4.27536C9.77296 4.01902 10.1206 3.875 10.4832 3.875C10.6627 3.875 10.8404 3.91036 11.0063 3.97905C11.1721 4.04775 11.3228 4.14843 11.4497 4.27536C11.5767 4.40229 11.6774 4.55298 11.7461 4.71883C11.8148 4.88467 11.8501 5.06242 11.8501 5.24193C11.8501 5.42144 11.8148 5.59919 11.7461 5.76503C11.6774 5.93087 11.5767 6.08156 11.4497 6.20849L10.944 6.71422C10.765 6.89321 10.4748 6.89321 10.2958 6.71422L9.01089 5.42927C8.8319 5.25028 8.8319 4.96008 9.01089 4.78109L9.51661 4.27536ZM8.3627 6.07745C8.18371 5.89846 7.89351 5.89846 7.71452 6.07746L4.52174 9.27024C4.22804 9.56394 4.01968 9.93193 3.91895 10.3349L3.61379 11.5555C3.57474 11.7117 3.62051 11.8769 3.73435 11.9908C3.84819 12.1046 4.01341 12.1504 4.1696 12.1113L5.39022 11.8062C5.79317 11.7054 6.16117 11.4971 6.45487 11.2034L9.64765 8.01058C9.82664 7.83159 9.82664 7.54139 9.64765 7.3624L8.3627 6.07745Z" fill="white"/>
<path fill-rule="evenodd" clip-rule="evenodd" d="M7.7251 11.6668C7.7251 11.4137 7.9303 11.2085 8.18343 11.2085L11.3918 11.2085C11.6449 11.2085 11.8501 11.4137 11.8501 11.6668C11.8501 11.92 11.6449 12.1252 11.3918 12.1252L8.18343 12.1252C7.9303 12.1252 7.7251 11.92 7.7251 11.6668Z" fill="white"/>
</svg>
