<svg width="16" height="16" viewBox="0 0 16 16" fill="none" xmlns="http://www.w3.org/2000/svg">
<circle cx="8" cy="8" r="8" fill="#FF6E40"/>
<path fill-rule="evenodd" clip-rule="evenodd" d="M9.52288 7.78296H7.5513C7.53935 7.81678 7.51984 7.84853 7.49279 7.87559L5.9337 9.43493C5.83676 9.53189 5.67956 9.5319 5.5826 9.43495C5.48564 9.33801 5.48563 9.18082 5.58258 9.08386L6.88327 7.78296H4.98611C3.88921 7.78296 3 8.67217 3 9.76907V10.0191C3 11.116 3.88921 12.0052 4.98611 12.0052H10.5139C11.6108 12.0052 12.5 11.116 12.5 10.0191V9.76907C12.5 8.67217 11.6108 7.78296 10.5139 7.78296H10.225L8.57259 9.43559C8.47564 9.53255 8.31844 9.53255 8.22149 9.43561C8.12453 9.33866 8.12452 9.18147 8.22147 9.08451L9.52288 7.78296Z" fill="white"/>
<path d="M7.69434 3.25464V8.25673" stroke="white" stroke-width="0.744792" stroke-linecap="round" stroke-linejoin="round"/>
<path d="M7.94288 5.18946V3.30542C8.16679 3.40309 8.35625 3.46264 8.5723 3.49674C8.80407 3.53331 9.06029 3.53945 9.41084 3.53945C9.76179 3.53945 9.98925 3.51407 10.1864 3.47022C10.4802 3.40489 10.7218 3.59528 10.7218 3.86334V4.7268C10.7218 4.98497 10.5578 5.22091 10.3164 5.3098C10.0912 5.39271 9.89 5.44503 9.41084 5.44503C8.69032 5.44503 8.30818 5.37695 7.94288 5.18946Z" fill="white" stroke="white" stroke-width="0.387709"/>
</svg>
