<svg width="16" height="16" viewBox="0 0 16 16" fill="none" xmlns="http://www.w3.org/2000/svg">
<circle cx="8" cy="8" r="8" fill="#FF6E40"/>
<path fill-rule="evenodd" clip-rule="evenodd" d="M8.16967 10.8537C8.06225 10.8018 7.93692 10.8018 7.82949 10.8537L5.7623 11.8538C5.48186 11.9895 5.16319 11.7583 5.20573 11.45L5.51934 9.17754C5.53563 9.05946 5.4969 8.94042 5.41422 8.85445L3.82301 7.20011C3.60715 6.97568 3.72887 6.60156 4.0356 6.5467L6.29662 6.14234C6.41411 6.12133 6.51551 6.04776 6.57182 5.94266L7.6556 3.92014C7.80263 3.64576 8.19653 3.64576 8.34356 3.92014L9.42734 5.94266C9.48366 6.04776 9.58505 6.12133 9.70254 6.14234L11.9636 6.5467C12.2703 6.60156 12.392 6.97568 12.1762 7.20011L10.5849 8.85445C10.5023 8.94042 10.4635 9.05946 10.4798 9.17755L10.7934 11.45C10.836 11.7583 10.5173 11.9895 10.2369 11.8538L8.16967 10.8537Z" fill="white"/>
</svg>
