<svg width="22" height="18" viewBox="0 0 22 18" fill="none" xmlns="http://www.w3.org/2000/svg">
<path d="M1 13.0415C1 12.4405 1.133 11.844 1.4855 11.3575C2.5225 9.925 5.3355 7 11 7C16.665 7 19.4775 9.9255 20.5145 11.3575C20.867 11.844 21 12.4405 21 13.0415C21 14.0914 20.5829 15.0982 19.8406 15.8406C19.0982 16.5829 18.0914 17 17.0415 17H4.9585C3.90864 17 2.90178 16.5829 2.15942 15.8406C1.41706 15.0982 1 14.0914 1 13.0415V13.0415Z" stroke="black" stroke-width="2" stroke-linecap="round" stroke-linejoin="round"/>
<path d="M5 2V4" stroke="black" stroke-width="2" stroke-linecap="round"/>
<path d="M6 8V10" stroke="black" stroke-width="2" stroke-linecap="round"/>
<path d="M17 2V4" stroke="black" stroke-width="2" stroke-linecap="round"/>
<path d="M16 8V10" stroke="black" stroke-width="2" stroke-linecap="round"/>
<path d="M11 1V4" stroke="black" stroke-width="2" stroke-linecap="round"/>
<path d="M11 7V11" stroke="black" stroke-width="2" stroke-linecap="round"/>
<path d="M19 9.7215C17.453 8.39 14.904 7 11 7C7.096 7 4.547 8.3895 3 9.7215" stroke="black" stroke-width="2" stroke-linecap="round"/>
</svg>
