<svg width="32" height="32" viewBox="0 0 32 32" fill="none" xmlns="http://www.w3.org/2000/svg">
<path d="M14.479 7.58461C14.825 7.93032 14.8517 8.47432 14.5588 8.85054L14.479 8.94088L8.332 15.0824L24.0402 15.0825C24.5114 15.0825 24.8935 15.4642 24.8935 15.935V16.1481C24.8935 16.6189 24.5114 17.0006 24.0402 17.0006L8.54512 17.0005L14.479 22.9291C14.825 23.2749 14.8517 23.8189 14.5588 24.1951L14.479 24.2854C14.1329 24.6311 13.5884 24.6577 13.2118 24.3652L13.1213 24.2854L5.44133 16.6132C5.09527 16.2674 5.06865 15.7234 5.36147 15.3472L5.44133 15.2569L13.1213 7.58461C13.4962 7.21008 14.1041 7.21008 14.479 7.58461Z" fill="white"/>
<mask id="mask0" style="mask-type:alpha" maskUnits="userSpaceOnUse" x="5" y="7" width="20" height="18">
<path d="M14.479 7.58461C14.825 7.93032 14.8517 8.47432 14.5588 8.85054L14.479 8.94088L8.332 15.0824L24.0402 15.0825C24.5114 15.0825 24.8935 15.4642 24.8935 15.935V16.1481C24.8935 16.6189 24.5114 17.0006 24.0402 17.0006L8.54512 17.0005L14.479 22.9291C14.825 23.2749 14.8517 23.8189 14.5588 24.1951L14.479 24.2854C14.1329 24.6311 13.5884 24.6577 13.2118 24.3652L13.1213 24.2854L5.44133 16.6132C5.09527 16.2674 5.06865 15.7234 5.36147 15.3472L5.44133 15.2569L13.1213 7.58461C13.4962 7.21008 14.1041 7.21008 14.479 7.58461Z" fill="white"/>
</mask>
<g mask="url(#mask0)">
<rect x="0.359863" y="0.59082" width="30.72" height="30.6891" fill="black"/>
</g>
</svg>
